<svg width="514" height="141" viewBox="0 0 514 141" fill="none" xmlns="http://www.w3.org/2000/svg">
<mask id="path-1-inside-1_266_40" fill="white">
<path fill-rule="evenodd" clip-rule="evenodd" d="M216.628 64C214.494 47.5928 202.02 35 186.95 35C185.771 35 184.607 35.0771 183.463 35.2272C177.501 27.7546 168.531 23 158.5 23C146.735 23 136.431 29.5393 130.726 39.333C128.545 23.9765 110.673 12 88.9501 12C69.1565 12 52.5609 21.9432 48.1183 35.3266C46.1052 35.1114 44.0455 35 41.9501 35C19.4467 35 1.07688 47.8521 0 64H216.628Z"/>
</mask>
<path fill-rule="evenodd" clip-rule="evenodd" d="M216.628 64C214.494 47.5928 202.02 35 186.95 35C185.771 35 184.607 35.0771 183.463 35.2272C177.501 27.7546 168.531 23 158.5 23C146.735 23 136.431 29.5393 130.726 39.333C128.545 23.9765 110.673 12 88.9501 12C69.1565 12 52.5609 21.9432 48.1183 35.3266C46.1052 35.1114 44.0455 35 41.9501 35C19.4467 35 1.07688 47.8521 0 64H216.628Z" fill="white"/>
<path d="M216.628 64V65H217.766L217.62 63.871L216.628 64ZM183.463 35.2272L182.681 35.8509L183.033 36.2922L183.593 36.2187L183.463 35.2272ZM130.726 39.333L129.736 39.4737L130.141 42.3243L131.591 39.8363L130.726 39.333ZM48.1183 35.3266L48.012 36.3209L48.8135 36.4066L49.0674 35.6416L48.1183 35.3266ZM0 64L-0.997784 63.9335L-1.06891 65H0V64ZM217.62 63.871C215.435 47.071 202.622 34 186.95 34V36C201.418 36 213.554 48.1147 215.636 64.129L217.62 63.871ZM186.95 34C185.727 34 184.52 34.08 183.333 34.2357L183.593 36.2187C184.694 36.0743 185.814 36 186.95 36V34ZM184.245 34.6036C178.108 26.9111 168.858 22 158.5 22V24C168.205 24 176.895 28.5981 182.681 35.8509L184.245 34.6036ZM158.5 22C146.35 22 135.731 28.7545 129.862 38.8297L131.591 39.8363C137.131 30.3242 147.12 24 158.5 24V22ZM131.716 39.1924C130.575 31.1607 125.346 24.1009 117.717 19.0728C110.083 14.0419 99.9892 11 88.9501 11V13C99.6343 13 109.338 15.9463 116.616 20.7428C123.899 25.5421 128.696 32.1488 129.736 39.4737L131.716 39.1924ZM88.9501 11C68.9013 11 51.7957 21.0741 47.1692 35.0116L49.0674 35.6416C53.3261 22.8123 69.4117 13 88.9501 13V11ZM48.2246 34.3323C46.1761 34.1133 44.081 34 41.9501 34V36C44.0101 36 46.0342 36.1096 48.012 36.3209L48.2246 34.3323ZM41.9501 34C30.5153 34 20.0936 37.264 12.37 42.6229C4.64942 47.9798 -0.434068 55.4805 -0.997784 63.9335L0.997784 64.0665C1.51095 56.3716 6.15082 49.3723 13.5102 44.2661C20.8666 39.162 30.8815 36 41.9501 36V34ZM0 65H216.628V63H0V65Z" fill="#46385B" mask="url(#path-1-inside-1_266_40)"/>
<mask id="path-3-inside-2_266_40" fill="white">
<path fill-rule="evenodd" clip-rule="evenodd" d="M217 141C219.134 124.593 231.608 112 246.678 112C247.377 112 248.071 112.027 248.758 112.08C254.94 102.387 265.505 96 277.5 96C288.594 96 298.465 101.464 304.776 109.954C310.294 97.7846 326.073 89 344.678 89C364.471 89 381.067 98.9432 385.51 112.327C387.523 112.111 389.582 112 391.678 112C414.181 112 432.551 124.852 433.628 141H217Z"/>
</mask>
<path fill-rule="evenodd" clip-rule="evenodd" d="M217 141C219.134 124.593 231.608 112 246.678 112C247.377 112 248.071 112.027 248.758 112.08C254.94 102.387 265.505 96 277.5 96C288.594 96 298.465 101.464 304.776 109.954C310.294 97.7846 326.073 89 344.678 89C364.471 89 381.067 98.9432 385.51 112.327C387.523 112.111 389.582 112 391.678 112C414.181 112 432.551 124.852 433.628 141H217Z" fill="white"/>
<path d="M217 141V142H215.861L216.008 140.871L217 141ZM248.758 112.08L249.601 112.618L249.279 113.124L248.681 113.077L248.758 112.08ZM304.776 109.954L305.687 110.367L304.986 111.912L303.974 110.55L304.776 109.954ZM385.51 112.327L385.616 113.321L384.814 113.407L384.561 112.642L385.51 112.327ZM433.628 141L434.626 140.933L434.697 142H433.628V141ZM216.008 140.871C218.193 124.071 231.006 111 246.678 111V113C232.21 113 220.074 125.115 217.992 141.129L216.008 140.871ZM246.678 111C247.403 111 248.123 111.028 248.836 111.083L248.681 113.077C248.019 113.026 247.351 113 246.678 113V111ZM247.915 111.543C254.266 101.585 265.137 95 277.5 95V97C265.873 97 255.614 103.19 249.601 112.618L247.915 111.543ZM277.5 95C288.934 95 299.093 100.633 305.579 109.357L303.974 110.55C297.837 102.295 288.254 97 277.5 97V95ZM303.865 109.541C309.595 96.9034 325.819 88 344.678 88V90C326.327 90 310.992 98.6659 305.687 110.367L303.865 109.541ZM344.678 88C364.727 88 381.832 98.0741 386.459 112.012L384.561 112.642C380.302 99.8123 364.216 90 344.678 90V88ZM385.403 111.332C387.452 111.113 389.547 111 391.678 111V113C389.618 113 387.594 113.11 385.616 113.321L385.403 111.332ZM391.678 111C403.113 111 413.534 114.264 421.258 119.623C428.979 124.98 434.062 132.481 434.626 140.933L432.63 141.067C432.117 133.372 427.477 126.372 420.118 121.266C412.761 116.162 402.746 113 391.678 113V111ZM433.628 142H217V140H433.628V142Z" fill="#46385B" mask="url(#path-3-inside-2_266_40)"/>
<mask id="path-5-inside-3_266_40" fill="white">
<path fill-rule="evenodd" clip-rule="evenodd" d="M403 39C404.09 26.6946 410.46 17.25 418.156 17.25C418.513 17.25 418.867 17.2703 419.219 17.3104C422.376 10.0406 427.771 5.25 433.896 5.25C439.562 5.25 444.603 9.34795 447.826 15.7151C450.644 6.58842 458.702 0 468.203 0C478.311 0 486.786 7.4574 489.055 17.4949C490.083 17.3336 491.135 17.25 492.205 17.25C503.697 17.25 513.078 26.889 513.628 39H403Z"/>
</mask>
<path fill-rule="evenodd" clip-rule="evenodd" d="M403 39C404.09 26.6946 410.46 17.25 418.156 17.25C418.513 17.25 418.867 17.2703 419.219 17.3104C422.376 10.0406 427.771 5.25 433.896 5.25C439.562 5.25 444.603 9.34795 447.826 15.7151C450.644 6.58842 458.702 0 468.203 0C478.311 0 486.786 7.4574 489.055 17.4949C490.083 17.3336 491.135 17.25 492.205 17.25C503.697 17.25 513.078 26.889 513.628 39H403Z" fill="white"/>
<path d="M403 39V40H401.908L402.004 38.9118L403 39ZM419.219 17.3104L420.136 17.7087L419.841 18.3878L419.105 18.3039L419.219 17.3104ZM447.826 15.7151L448.781 16.0101L448.051 18.3748L446.934 16.1668L447.826 15.7151ZM489.055 17.4949L489.21 18.4828L488.286 18.6279L488.079 17.7154L489.055 17.4949ZM513.628 39L514.627 38.9546L514.674 40H513.628V39ZM402.004 38.9118C402.561 32.6227 404.47 27.011 407.278 22.9425C410.079 18.8829 413.865 16.25 418.156 16.25V18.25C414.751 18.25 411.504 20.3394 408.924 24.0785C406.35 27.8086 404.529 33.072 403.996 39.0882L402.004 38.9118ZM418.156 16.25C418.551 16.25 418.943 16.2725 419.332 16.3168L419.105 18.3039C418.792 18.2682 418.475 18.25 418.156 18.25V16.25ZM418.301 16.912C421.536 9.46429 427.202 4.25 433.896 4.25V6.25C428.34 6.25 423.215 10.6169 420.136 17.7087L418.301 16.912ZM433.896 4.25C440.087 4.25 445.404 8.71658 448.718 15.2635L446.934 16.1668C443.802 9.97932 439.037 6.25 433.896 6.25V4.25ZM446.87 15.4201C449.803 5.92186 458.215 -1 468.203 -1V1C459.188 1 451.484 7.25498 448.781 16.0101L446.87 15.4201ZM468.203 -1C478.83 -1 487.67 6.83322 490.03 17.2745L488.079 17.7154C485.902 8.08159 477.792 1 468.203 1V-1ZM488.9 16.507C489.979 16.3377 491.083 16.25 492.205 16.25V18.25C491.187 18.25 490.187 18.3295 489.21 18.4828L488.9 16.507ZM492.205 16.25C504.29 16.25 514.055 26.3697 514.627 38.9546L512.629 39.0454C512.101 27.4084 503.104 18.25 492.205 18.25V16.25ZM513.628 40H403V38H513.628V40Z" fill="#46385B" mask="url(#path-5-inside-3_266_40)"/>
</svg>
