<svg width="227" height="47" viewBox="0 0 227 47" fill="none" xmlns="http://www.w3.org/2000/svg">
<path d="M22.0804 35.605V46H17.4604C8.95372 46 4.70039 41.765 4.70039 33.295V25.155H0.850391V14.98H4.70039V7.5H16.9104V14.98H21.9704V25.155H16.9104V33.515C16.9104 34.2483 17.0754 34.78 17.4054 35.11C17.7721 35.44 18.3587 35.605 19.1654 35.605H22.0804ZM38.9405 20.7C40.1871 18.9033 41.7088 17.4733 43.5055 16.41C45.3021 15.31 47.1721 14.76 49.1155 14.76V27.795H45.6505C43.3405 27.795 41.6355 28.1983 40.5355 29.005C39.4721 29.8117 38.9405 31.2417 38.9405 33.295V46H26.7305V14.98H38.9405V20.7ZM50.7543 30.49C50.7543 27.2267 51.3043 24.4033 52.4043 22.02C53.541 19.6 55.081 17.7667 57.0243 16.52C58.9676 15.2367 61.1493 14.595 63.5693 14.595C65.586 14.595 67.3276 15.0167 68.7943 15.86C70.261 16.6667 71.3793 17.785 72.1493 19.215V14.98H84.3043V46H72.1493V41.765C71.3793 43.195 70.261 44.3317 68.7943 45.175C67.3276 45.9817 65.586 46.385 63.5693 46.385C61.1493 46.385 58.9676 45.7617 57.0243 44.515C55.081 43.2317 53.541 41.3983 52.4043 39.015C51.3043 36.595 50.7543 33.7533 50.7543 30.49ZM72.1493 30.49C72.1493 28.84 71.7276 27.5567 70.8843 26.64C70.041 25.7233 68.9593 25.265 67.6393 25.265C66.3193 25.265 65.2376 25.7233 64.3943 26.64C63.551 27.5567 63.1293 28.84 63.1293 30.49C63.1293 32.14 63.551 33.4233 64.3943 34.34C65.2376 35.2567 66.3193 35.715 67.6393 35.715C68.9593 35.715 70.041 35.2567 70.8843 34.34C71.7276 33.4233 72.1493 32.14 72.1493 30.49ZM88.1371 30.49C88.1371 27.2633 88.7971 24.4583 90.1171 22.075C91.4738 19.655 93.3438 17.8033 95.7271 16.52C98.1471 15.2367 100.897 14.595 103.977 14.595C108.01 14.595 111.402 15.7317 114.152 18.005C116.939 20.2783 118.699 23.4317 119.432 27.465H106.507C106.03 25.8517 105.095 25.045 103.702 25.045C102.712 25.045 101.924 25.5033 101.337 26.42C100.787 27.3367 100.512 28.6933 100.512 30.49C100.512 32.2867 100.787 33.6433 101.337 34.56C101.924 35.4767 102.712 35.935 103.702 35.935C105.095 35.935 106.03 35.1283 106.507 33.515H119.432C118.699 37.5483 116.939 40.7017 114.152 42.975C111.402 45.2483 108.01 46.385 103.977 46.385C100.897 46.385 98.1471 45.7433 95.7271 44.46C93.3438 43.1767 91.4738 41.3433 90.1171 38.96C88.7971 36.54 88.1371 33.7167 88.1371 30.49ZM143.158 46L135.513 33.625V46H123.303V5.3H135.513V26.585L143.268 14.98H157.458L145.853 30.6L157.733 46H143.158ZM166.631 12.505C164.504 12.505 162.799 11.9367 161.516 10.8C160.232 9.66333 159.591 8.23333 159.591 6.51C159.591 4.75 160.232 3.30166 161.516 2.165C162.799 0.991664 164.504 0.404997 166.631 0.404997C168.721 0.404997 170.407 0.991664 171.691 2.165C172.974 3.30166 173.616 4.75 173.616 6.51C173.616 8.23333 172.974 9.66333 171.691 10.8C170.407 11.9367 168.721 12.505 166.631 12.505ZM172.681 14.98V46H160.471V14.98H172.681ZM192.935 46.385C189.819 46.385 187.014 45.7433 184.52 44.46C182.027 43.1767 180.065 41.3433 178.635 38.96C177.242 36.54 176.545 33.7167 176.545 30.49C176.545 27.2633 177.242 24.4583 178.635 22.075C180.065 19.655 182.027 17.8033 184.52 16.52C187.014 15.2367 189.819 14.595 192.935 14.595C196.052 14.595 198.857 15.2367 201.35 16.52C203.844 17.8033 205.787 19.655 207.18 22.075C208.61 24.4583 209.325 27.2633 209.325 30.49C209.325 33.7167 208.61 36.54 207.18 38.96C205.787 41.3433 203.844 43.1767 201.35 44.46C198.857 45.7433 196.052 46.385 192.935 46.385ZM192.935 35.825C194.072 35.825 195.025 35.385 195.795 34.505C196.565 33.5883 196.95 32.25 196.95 30.49C196.95 28.73 196.565 27.41 195.795 26.53C195.025 25.6133 194.072 25.155 192.935 25.155C191.799 25.155 190.845 25.6133 190.075 26.53C189.305 27.41 188.92 28.73 188.92 30.49C188.92 32.25 189.287 33.5883 190.02 34.505C190.79 35.385 191.762 35.825 192.935 35.825Z" fill="#46385B"/>
<path d="M219.211 46.44C217.084 46.44 215.379 45.8717 214.096 44.735C212.813 43.5983 212.171 42.1683 212.171 40.445C212.171 38.685 212.813 37.2367 214.096 36.1C215.379 34.9267 217.084 34.34 219.211 34.34C221.301 34.34 222.988 34.9267 224.271 36.1C225.554 37.2367 226.196 38.685 226.196 40.445C226.196 42.1683 225.554 43.5983 224.271 44.735C222.988 45.8717 221.301 46.44 219.211 46.44Z" fill="#FF005C"/>
</svg>
